<svg xmlns="http://www.w3.org/2000/svg" width="256" height="256"><path fill="#1976D2" fill-opacity=".016" fill-rule="evenodd" d="M0 128.004v128.004l128.25-.254 128.25-.254.254-127.75L257.008 0H0zm.485.496c0 70.4.119 99.053.265 63.672s.146-92.98 0-128S.485 58.1.485 128.5"/><path fill="#1976D2" fill-opacity=".155" fill-rule="evenodd" d="M32.407 1.407C21.495 4.055 16.045 10.156 14.01 22c-.768 4.472-1.017 26.779-.796 71.5.358 72.734.106 70.141 7.574 77.793 7.309 7.489 3.12 7.207 107.212 7.207s99.903.282 107.212-7.207c7.468-7.652 7.216-5.059 7.574-77.793.221-44.721-.028-67.028-.796-71.5-2.093-12.179-8.044-18.464-19.789-20.901-7.934-1.646-182.916-1.362-189.794.308m35.65 46.843c-6.051 14.044-32.191 85.958-31.706 87.224.76 1.979 15.082 2.222 16.337.276.444-.687 2.207-4.85 3.919-9.25l3.112-8h40.593l3.594 9 3.594 9 7.765.292c6.289.237 7.879-.003 8.362-1.264.564-1.467-30.831-87.606-32.903-90.278-.66-.851-4.139-1.25-10.903-1.25h-9.933zm63.416-3.041c-.272.71-.377 21.541-.234 46.291l.261 45h16l22-30.739c12.1-16.907 22.338-30.745 22.75-30.75.412-.006.75 13.434.75 29.867 0 24.465.255 30.089 1.408 31.045.872.724 4.197 1.056 8.75.873l7.342-.296v-92l-7.721-.292-7.722-.291-4.278 5.868c-2.354 3.227-12.379 17.416-22.279 31.532s-18.331 25.668-18.736 25.673c-.404.006-.854-14.052-1-31.24L148.5 44.5l-8.266-.291c-6.046-.212-8.398.056-8.761 1M78.685 64.701C77.883 65.998 65 101.284 65 102.182c0 .45 6.799.818 15.108.818h15.109l-.587-2.25c-.323-1.237-3.438-9.872-6.923-19.188-5.828-15.58-7.678-19.037-9.022-16.861m-52 134.947c-.377.377-.685 13.21-.685 28.519V256h11v-46h23l.015 21.75c.009 11.963.39 22.34.847 23.061.55.868 2.489 1.206 5.735 1l4.903-.311v-56l-22.065-.269c-12.135-.147-22.373.04-22.75.417m61.669.105c-.762.496-1.276 6.457-1.531 17.747-.334 14.834-.661 17.61-2.564 21.788-1.593 3.499-2.999 5.074-5.22 5.848-2.769.966-3.039 1.453-3.039 5.493 0 5.394 1.433 6.205 7.904 4.475 5.573-1.489 8.761-4.254 11.228-9.74 1.95-4.335 3.821-18.482 3.851-29.114L99 210h16l.015 21.75c.009 11.963.39 22.34.847 23.061.55.868 2.489 1.206 5.735 1l4.903-.311v-56l-18.5-.247c-10.175-.136-19.016.089-19.646.5m62.914.06c-1.903 1.209-21.525 54.33-20.461 55.394.503.503 3.067.774 5.698.603 4.773-.309 4.788-.322 6.773-5.56l1.99-5.25h23.5l2.232 5.5 2.232 5.5h4.825c2.654 0 5.113-.466 5.464-1.034.86-1.391-18.387-53.129-20.354-54.716-1.704-1.375-9.946-1.678-11.899-.437m36.184.452c-.267.696-.366 13.408-.219 28.25l.267 26.985h11l.283-11.25.283-11.25h22.868l.283 11.25.283 11.25 4.903.311c3.246.206 5.185-.132 5.735-1 .457-.721.838-13.068.847-27.439.017-29.343.177-28.711-7.161-28.183l-4.324.311-.283 11.25-.283 11.25H199v-10.3c0-6.678-.422-10.722-1.2-11.5-1.612-1.612-9.724-1.561-10.348.065M152.71 223.25c-2.043 5.637-3.713 10.588-3.712 11s3.771.75 8.377.75h8.375l-4.014-11c-2.208-6.05-4.306-11-4.663-11-.356 0-2.32 4.613-4.363 10.25"/><path fill="#1976D2" fill-opacity=".34" fill-rule="evenodd" d="M36.351 1.055C24.82 2.558 18.402 7.659 15.259 17.817 13.656 22.997 13.5 29.341 13.5 89.5s.156 66.503 1.759 71.683c3.515 11.363 9.655 15.353 25.872 16.815 13.497 1.217 160.241 1.217 173.738 0 16.217-1.462 22.357-5.452 25.872-16.815 1.603-5.18 1.759-11.524 1.759-71.683s-.156-66.503-1.759-71.683c-3.236-10.459-9.415-15.18-22.009-16.816-8.755-1.137-173.617-1.088-182.381.054m34.463 42.622c-1.917.506-1.612-.246-21.222 52.295-7.897 21.159-14.138 39.047-13.868 39.75.343.895 2.969 1.278 8.76 1.278h8.27l1.993-4.75a300 300 0 0 0 3.759-9.5l1.766-4.75h39.39l3.76 9.5 3.76 9.5h8.302c6.067 0 8.442-.365 8.823-1.357.661-1.724-31.732-88.35-33.959-90.81-1.367-1.511-3.079-1.813-9.753-1.717-4.452.064-8.853.316-9.781.561m61.426.154c-.99.628-1.205 10.65-1 46.734l.26 45.935 8.027.287 8.027.287 21.895-30.537C181.492 89.742 191.71 76 192.158 76c.447 0 .932 13.612 1.077 30.25l.265 30.25 7.98.296c6.645.247 8.192.006 9.25-1.441.981-1.342 1.27-11.689 1.27-45.475 0-38.428-.191-43.928-1.571-45.309-2.315-2.314-13.822-2.181-16.179.187-.963.968-11.147 15.143-22.631 31.5C160.134 92.616 150.346 106 149.869 106S149 92.365 149 75.7c0-22.233-.319-30.619-1.2-31.5-1.346-1.346-13.565-1.636-15.56-.369M78.625 65.797c-.307.497-3.233 8.283-6.504 17.303s-6.258 17.187-6.64 18.15c-.643 1.62.43 1.75 14.479 1.75 14.005 0 15.13-.135 14.599-1.75-.317-.963-3.414-9.372-6.884-18.689-5.873-15.771-7.64-19.044-9.05-16.764M26.234 227.731 26.5 255.5h10l.269-22.75.269-22.75h23.924l.269 22.75.269 22.75h10v-55l-22.766-.269-22.766-.269zm61.456-12.002c-.828 20.865-3.016 27.904-9.44 30.361-1.724.659-2.25 1.656-2.25 4.263 0 1.871.577 3.881 1.283 4.467 1.586 1.316 8.729-.126 12.34-2.492C95.225 248.657 98 238.22 98 220.816V210h17.962l.269 22.75.269 22.75h10v-55l-19.093-.271-19.092-.271zm62.831-14.764c-1.497 2.423-19.521 51.514-19.521 53.17 0 1.536.772 1.865 4.378 1.865 4.951 0 5.634-.61 8.117-7.25l1.777-4.75h23.401l2.588 6 2.589 6h4.516c2.484 0 4.738-.36 5.01-.8.467-.755-17.974-51.278-19.691-53.95-.956-1.488-12.268-1.733-13.164-.285m37.146-.298c-.975.975-.787 52.596.197 54.148.539.85 2.391 1.203 5.235 1l4.401-.315.5-11.5.5-11.5 11.718-.281 11.718-.282.282 11.782.282 11.781h10l.266-27.803.266-27.803-5.266.303-5.266.303-.284 10.75-.284 10.75H198v-22h-4.833c-2.659 0-5.134.3-5.5.667m-31.646 13.294c-.627 1.172-2.681 6.386-4.563 11.585L148.036 235h9.089c8.254 0 9.025-.161 8.395-1.75-.381-.963-2.241-6-4.134-11.194-1.892-5.193-3.616-9.62-3.832-9.835s-.905.567-1.533 1.74"/><path fill="#1976D2" fill-opacity=".157" fill-rule="evenodd" d="M42 .949c-15.143 1.289-20.783 4.227-24.878 12.96L14.5 19.5v70c0 69.305.021 70.045 2.126 74.5 3.817 8.079 7.968 11.084 17.828 12.907 8.215 1.519 178.877 1.519 187.092 0 9.86-1.823 14.011-4.828 17.828-12.907 2.105-4.455 2.126-5.195 2.126-74.5v-70l-2.622-5.591c-1.509-3.219-4.004-6.575-5.881-7.911C225.577.714 225.146.69 134.5.449 88.3.326 46.675.55 42 .949M68.642 45.25c-.772 1.237-8.749 21.989-17.727 46.114-15.626 41.987-16.243 43.923-14.428 45.25 2.205 1.612 12.724 1.879 15.501.392 1.045-.559 3.26-4.713 5.067-9.5L60.266 119h39.448l3.306 8.552c1.819 4.704 4.103 8.979 5.078 9.5 2.37 1.269 12.545 1.209 14.968-.087 1.064-.57 1.934-1.523 1.934-2.119 0-1.706-32.045-87.085-33.628-89.596C90.056 43.162 89.236 43 80 43c-9.24 0-10.055.161-11.358 2.25M131.2 44.2c-.898.898-1.2 12.473-1.2 45.929 0 39.329.19 44.918 1.571 46.3 1.791 1.791 12.365 2.211 15.357.61.988-.529 11.421-14.422 23.184-30.872L191.5 76.256l.5 29.22c.389 22.72.805 29.588 1.872 30.872 1.016 1.223 3.046 1.652 7.816 1.652C213.013 138 212 142.651 212 90.665c0-33.873-.302-45.567-1.2-46.465-.711-.711-4.136-1.2-8.411-1.2-6.705 0-7.375.199-9.55 2.838-1.286 1.561-11.339 15.682-22.339 31.379l-20 28.54-.5-30.129c-.275-16.57-.864-30.69-1.309-31.378-1.079-1.667-15.832-1.709-17.491-.05M78.519 66.75C76.08 72.893 66 101.272 66 101.996c0 .486 6.3.883 14 .883 9.449 0 14-.355 14-1.092C94 99.731 80.779 65 79.996 65c-.43 0-1.095.787-1.477 1.75M26.451 201.266c-.267.697-.365 12.959-.218 27.25L26.5 254.5h10l.269-22.75.269-22.75H61v46h10v-55H48.969c-16.855 0-22.146.298-22.518 1.266m61.541 11.484c-.012 21.017-2.345 30.424-8.08 32.589-2.61.985-2.912 1.557-2.912 5.51v4.411l4.614-.52c2.538-.286 5.801-1.38 7.25-2.432 5.968-4.329 9.077-15.945 9.116-34.058L98 209h18v46h10v-55H88zm62.511-11.548c-.259.714-4.753 12.721-9.987 26.683S131 253.659 131 254.135s2.19.865 4.866.865h4.866l1.995-5.25 1.995-5.25h24.708l2.028 5.25 2.028 5.25h4.757c3.166 0 4.74-.418 4.706-1.25-.028-.687-4.426-12.95-9.773-27.25l-9.722-26-6.24-.298c-4.427-.212-6.377.079-6.711 1M188 227.5V255h10v-23.062l12.25.281 12.25.281.283 11.25.283 11.25h9.966l-.266-27.25-.266-27.25-4.717-.303-4.716-.304-.284 11.304-.283 11.303h-24l-.283-11.25-.283-11.25H188zm-32.476-13.792c-2.267 5.621-7.524 20.534-7.524 21.342 0 .53 3.98.95 9 .95 6.54 0 8.997-.342 8.988-1.25-.022-2.341-7.711-22.158-8.728-22.497-.558-.186-1.339.469-1.736 1.455"/></svg>