<svg width="24" height="24" viewBox="0 0 24 24" fill="none" xmlns="http://www.w3.org/2000/svg">
<path d="M12.0002 3C9.69024 3 8.23024 5.587 5.31224 10.762L4.94824 11.406C2.52324 15.706 1.31024 17.856 2.40624 19.428C3.50224 21 6.21424 21 11.6362 21H12.3642C17.7862 21 20.4982 21 21.5942 19.428C22.6902 17.856 21.4772 15.706 19.0522 11.406L18.6882 10.761C15.7702 5.587 14.3112 3 12.0002 3Z" fill="#DC3E3E"/>
<path d="M12 7.25C12.1989 7.25 12.3897 7.32902 12.5303 7.46967C12.671 7.61032 12.75 7.80109 12.75 8V13C12.75 13.1989 12.671 13.3897 12.5303 13.5303C12.3897 13.671 12.1989 13.75 12 13.75C11.8011 13.75 11.6103 13.671 11.4697 13.5303C11.329 13.3897 11.25 13.1989 11.25 13V8C11.25 7.80109 11.329 7.61032 11.4697 7.46967C11.6103 7.32902 11.8011 7.25 12 7.25ZM12 17C12.2652 17 12.5196 16.8946 12.7071 16.7071C12.8946 16.5196 13 16.2652 13 16C13 15.7348 12.8946 15.4804 12.7071 15.2929C12.5196 15.1054 12.2652 15 12 15C11.7348 15 11.4804 15.1054 11.2929 15.2929C11.1054 15.4804 11 15.7348 11 16C11 16.2652 11.1054 16.5196 11.2929 16.7071C11.4804 16.8946 11.7348 17 12 17Z" fill="white"/>
</svg>
