<svg width="24" height="24" viewBox="0 0 24 24" fill="none" xmlns="http://www.w3.org/2000/svg">
<path d="M22 12C22 17.523 17.523 22 12 22C6.477 22 2 17.523 2 12C2 6.477 6.477 2 12 2C17.523 2 22 6.477 22 12Z" fill="#8B8B98"/>
<path d="M8.96934 8.96918C9.10997 8.82873 9.30059 8.74984 9.49934 8.74984C9.69809 8.74984 9.88871 8.82873 10.0293 8.96918L11.9993 10.9392L13.9693 8.96918C14.038 8.89549 14.1208 8.83639 14.2128 8.7954C14.3048 8.7544 14.4041 8.73236 14.5048 8.73059C14.6055 8.72881 14.7055 8.74733 14.7989 8.78505C14.8923 8.82278 14.9772 8.87892 15.0484 8.95014C15.1196 9.02136 15.1757 9.10619 15.2135 9.19958C15.2512 9.29297 15.2697 9.393 15.2679 9.4937C15.2662 9.5944 15.2441 9.69372 15.2031 9.78572C15.1621 9.87771 15.103 9.96052 15.0293 10.0292L13.0593 11.9992L15.0293 13.9692C15.1618 14.1114 15.2339 14.2994 15.2305 14.4937C15.2271 14.688 15.1484 14.8734 15.011 15.0108C14.8735 15.1482 14.6882 15.2269 14.4939 15.2304C14.2996 15.2338 14.1115 15.1617 13.9693 15.0292L11.9993 13.0592L10.0293 15.0292C9.88716 15.1617 9.69912 15.2338 9.50482 15.2304C9.31052 15.2269 9.12513 15.1482 8.98772 15.0108C8.85031 14.8734 8.77159 14.688 8.76816 14.4937C8.76474 14.2994 8.83686 14.1114 8.96934 13.9692L10.9393 11.9992L8.96934 10.0292C8.82889 9.88855 8.75 9.69793 8.75 9.49918C8.75 9.30043 8.82889 9.1098 8.96934 8.96918Z" fill="white"/>
</svg>
