<svg width="24" height="24" viewBox="0 0 24 24" fill="none" xmlns="http://www.w3.org/2000/svg">
<path d="M22 12C22 17.523 17.523 22 12 22C6.477 22 2 17.523 2 12C2 6.477 6.477 2 12 2C17.523 2 22 6.477 22 12Z" fill="#05BD8D"/>
<path d="M16.0292 8.96934C16.1696 9.10997 16.2485 9.30059 16.2485 9.49934C16.2485 9.69809 16.1696 9.88871 16.0292 10.0293L11.0292 15.0293C10.8886 15.1698 10.6979 15.2487 10.4992 15.2487C10.3004 15.2487 10.1098 15.1698 9.96918 15.0293L7.96918 13.0293C7.89549 12.9607 7.83639 12.8779 7.7954 12.7859C7.7544 12.6939 7.73236 12.5946 7.73059 12.4939C7.72881 12.3932 7.74733 12.2931 7.78505 12.1997C7.82278 12.1064 7.87892 12.0215 7.95014 11.9503C8.02136 11.8791 8.10619 11.8229 8.19958 11.7852C8.29297 11.7475 8.393 11.729 8.4937 11.7307C8.5944 11.7325 8.69372 11.7546 8.78571 11.7956C8.87771 11.8366 8.96051 11.8957 9.02918 11.9693L10.4992 13.4393L12.7342 11.2043L14.9692 8.96934C15.1098 8.82889 15.3004 8.75 15.4992 8.75C15.6979 8.75 15.8886 8.82889 16.0292 8.96934Z" fill="white"/>
</svg>
