<svg width="24" height="24" viewBox="0 0 24 24" fill="none" xmlns="http://www.w3.org/2000/svg">
<path d="M2 12C2 6.477 6.477 2 12 2C17.523 2 22 6.477 22 12C22 17.523 17.523 22 12 22C6.477 22 2 17.523 2 12Z" fill="#26B5CE"/>
<path d="M10.6865 8.37305C10.98 8.36662 11.2724 8.41776 11.5459 8.52441C13.0901 9.12505 13.4613 11.1401 12.2354 12.2539L12.2344 12.2529L11.7158 12.7266L11.7148 12.7256L11.6904 12.7471L11.6914 12.748C11.6654 12.7727 11.6452 12.8028 11.6318 12.8359C11.6185 12.8691 11.6127 12.9047 11.6143 12.9404C11.6159 12.9763 11.6252 13.012 11.6416 13.0439C11.6497 13.0597 11.6597 13.0743 11.6709 13.0879L11.709 13.126L11.7148 13.1309C11.7151 13.1311 11.7167 13.1325 11.7197 13.1348C11.7219 13.1364 11.7244 13.1383 11.7275 13.1406L11.9209 13.292C12.3613 13.659 12.7238 14.112 12.9854 14.624C13.2842 15.2091 13.4433 15.8558 13.4502 16.5127V17C13.4502 17.4141 13.1143 17.7499 12.7002 17.75C12.286 17.75 11.9502 17.4142 11.9502 17V16.5283L11.9434 16.3691C11.918 15.9993 11.8185 15.6378 11.6494 15.3066C11.4561 14.9282 11.1776 14.5994 10.8359 14.3467L10.8311 14.3438C10.8243 14.3387 10.8034 14.3212 10.7793 14.3018C10.7775 14.3003 10.7762 14.2993 10.7744 14.2979C10.7675 14.2922 10.7598 14.2872 10.7529 14.2812V14.2793C10.5684 14.1274 10.4158 13.9404 10.3066 13.7275C10.1922 13.5042 10.1265 13.2586 10.1152 13.0078C10.104 12.7571 10.1472 12.5071 10.2412 12.2744C10.3352 12.0417 10.4779 11.8318 10.6602 11.6592L10.6699 11.6494L10.7051 11.6182L10.7061 11.6162L11.2266 11.1436L11.2959 11.0713C11.6116 10.6972 11.4742 10.1069 11.001 9.92285C10.9116 9.88798 10.8157 9.87002 10.7197 9.87207C10.6236 9.87419 10.5284 9.89574 10.4404 9.93457L10.1787 10.0498C9.90414 10.1703 9.78675 10.2226 9.6748 10.2783C9.48054 10.3749 9.29148 10.4821 9.10938 10.5996C9.003 10.6686 8.89697 10.7431 8.6543 10.916L7.93555 11.4287L7.87012 11.4697C7.5398 11.6578 7.11396 11.5692 6.88867 11.2529C6.64871 10.9157 6.72739 10.4473 7.06445 10.207L7.78418 9.69434C8.02041 9.52602 8.1548 9.43062 8.29492 9.33984L8.29688 9.33887C8.52564 9.19132 8.76197 9.05678 9.00586 8.93555C9.15678 8.86037 9.30924 8.79305 9.57422 8.67676L9.83496 8.5625L10.04 8.4834C10.2484 8.41502 10.4665 8.37789 10.6865 8.37305Z" fill="white"/>
<path d="M9.3457 14.1191C9.61717 13.8531 10.0512 13.8308 10.3496 14.0791C10.6679 14.3442 10.7114 14.8175 10.4463 15.1357L10.2832 15.3203C9.89236 15.7403 9.42419 16.0821 8.90332 16.3262C8.30777 16.6052 7.65767 16.75 7 16.75C6.5858 16.75 6.25 16.4142 6.25 16C6.25002 15.5858 6.58581 15.25 7 15.25C7.43772 15.25 7.87022 15.1535 8.2666 14.9678C8.66287 14.7821 9.01385 14.512 9.29395 14.1758L9.3457 14.1191Z" fill="white"/>
<path d="M15.3193 11.2725C15.7212 11.172 16.1281 11.4165 16.2285 11.8184C16.3289 12.2202 16.0844 12.6271 15.6826 12.7275C14.9068 12.9213 14.0952 12.9214 13.3193 12.7275C12.9176 12.6271 12.6732 12.2201 12.7734 11.8184C12.8676 11.4417 13.2313 11.2035 13.6074 11.2578L13.6826 11.2725L13.8857 11.3164C14.3604 11.4045 14.8494 11.3899 15.3193 11.2725Z" fill="white"/>
<path fill-rule="evenodd" clip-rule="evenodd" d="M14.75 6.25C15.8546 6.25 16.75 7.14543 16.75 8.25C16.75 9.35457 15.8546 10.25 14.75 10.25C13.6454 10.25 12.75 9.35457 12.75 8.25C12.75 7.14543 13.6454 6.25 14.75 6.25ZM14.75 7.75C14.4739 7.75 14.25 7.97386 14.25 8.25C14.25 8.52614 14.4739 8.75 14.75 8.75C15.0261 8.75 15.25 8.52614 15.25 8.25C15.25 7.97386 15.0261 7.75 14.75 7.75Z" fill="white"/>
</svg>
