<svg width="175" height="40" viewBox="0 0 175 40" fill="none" xmlns="http://www.w3.org/2000/svg">
<g clip-path="url(#clip0_10059_165289)">
<path d="M163.121 36.2427L164.207 47.5605L166.676 47.3237L165.591 36.0059L163.121 36.2427Z" fill="#B6D54F"/>
<path d="M114.898 34.418V47.2862H117.379V34.418H114.898Z" fill="#B6D54F"/>
<path d="M73.6582 30.0781C73.6582 35.0898 73.6542 39.6508 74.7722 44.7617L77.1953 44.2318C76.1428 39.4202 76.1388 35.1171 76.1388 30.0781H73.6582Z" fill="#B6D54F"/>
<path d="M98.5391 21.5962C95.5654 29.8914 94.3093 35.7011 92.1438 44.8294L94.5573 45.4019C96.7318 36.2355 97.9564 30.5722 100.874 22.4335L98.5391 21.5962Z" fill="#B6D54F"/>
<path d="M51.184 26.1897C51.7373 30.9209 52.6864 34.7534 53.418 37.9861C54.1587 41.2593 54.6523 43.8311 54.4393 46.2469L56.9103 46.4647C57.162 43.6091 56.5701 40.677 55.8372 37.4386C55.0952 34.1597 54.1825 30.4728 53.6479 25.9017L51.184 26.1897Z" fill="#B6D54F"/>
<path d="M30.9433 33.5195C29.9945 36.0587 28.7146 39.8947 28.2365 45.3176L30.7075 45.5353C31.1588 40.4155 32.3619 36.8102 33.2671 34.3877L30.9433 33.5195Z" fill="#B6D54F"/>
<path d="M7.13339 26.6226C6.99915 28.3309 6.334 31.5171 5.35462 34.9368C4.37731 38.3493 3.12576 41.8573 1.8682 44.2245L4.05904 45.3884C5.43691 42.7947 6.74439 39.0933 7.73918 35.6198C8.7319 32.1535 9.45235 28.7768 9.60637 26.817L7.13339 26.6226Z" fill="#B6D54F"/>
<path d="M137.23 21.7889C137.844 30.8472 137.646 35.7979 136.31 44.7782L138.764 45.1434C140.126 35.9867 140.331 30.8573 139.705 21.6211L137.23 21.7889Z" fill="#B6D54F"/>
<path d="M162.737 22.9865C162.533 21.1495 160.985 17.0874 159.839 14.3236C159.516 13.5453 158.588 13.4102 158.287 14.1972C156.574 18.6759 157.253 30.0979 157.931 32.1338C158.707 34.4593 162.737 38.4903 163.667 38.0252C164.598 37.5601 163.047 25.7772 162.737 22.9865Z" fill="#C881B9"/>
<path d="M163.98 12.4432C163.36 12.8153 163.308 14.1486 163.36 14.7688C163.566 22.5724 164.259 38.1486 165.375 38.0246C166.77 37.8696 168.166 37.2494 169.561 33.0634C170.957 28.8773 169.871 24.8463 169.096 20.1951C168.321 15.544 164.755 11.9781 163.98 12.4432Z" fill="#C37ABA"/>
<path d="M165.376 15.079C164.386 13.0999 163.002 12.5024 162.089 12.4204C161.701 12.3856 161.326 12.5623 161.11 12.8867C159.237 15.7111 158.573 27.1618 158.864 29.3425C159.083 30.9867 161.337 34.8508 162.821 37.1894C163.154 37.7142 163.734 38.0247 164.356 38.0247C164.991 38.0247 165.583 37.701 165.903 37.1526C166.857 35.5164 168.22 32.8986 168.632 31.048C169.252 28.2573 166.926 18.1798 165.376 15.079Z" fill="#B165A6"/>
<path d="M116.343 22.1861C116.437 20.3402 115.562 16.0821 114.875 13.17C114.681 12.35 113.787 12.0675 113.363 12.7958C110.952 16.9409 109.787 28.3236 110.129 30.442C110.521 32.862 113.851 37.4884 114.844 37.1788C115.837 36.8693 116.2 24.9903 116.343 22.1861Z" fill="#CD4C9B"/>
<path d="M119.262 11.9804C118.59 12.248 118.324 13.5557 118.276 14.1761C117.226 21.9115 115.406 37.3965 116.527 37.4535C117.929 37.5247 119.406 37.1369 121.456 33.2296C123.506 29.3222 123.083 25.1691 123.065 20.4538C123.048 15.7386 120.101 11.6459 119.262 11.9804Z" fill="#D34990"/>
<path d="M120.217 14.8053C119.558 12.6929 118.288 11.8807 117.4 11.653C117.023 11.5563 116.624 11.6704 116.359 11.956C114.057 14.4425 111.561 25.6377 111.497 27.8368C111.45 29.4949 113.053 33.6708 114.142 36.2176C114.386 36.7891 114.909 37.1889 115.522 37.2888C116.149 37.3908 116.786 37.1664 117.189 36.6766C118.395 35.2151 120.161 32.8505 120.864 31.0899C121.925 28.4352 121.249 18.1149 120.217 14.8053Z" fill="#B34191"/>
<path d="M102.704 11.2765C103.226 9.50327 103.367 5.15861 103.377 2.16648C103.379 1.32386 102.576 0.84096 101.994 1.45058C98.6838 4.91993 94.899 15.718 94.7387 17.858C94.5556 20.3025 96.7166 25.5774 97.7543 25.5077C98.792 25.4379 101.913 13.9704 102.704 11.2765Z" fill="#C881B9"/>
<path d="M107.922 2.03224C107.206 2.13595 106.644 3.34587 106.452 3.93786C103.629 11.2158 98.2516 25.851 99.3289 26.1676C100.676 26.5634 102.203 26.5305 105.107 23.2081C108.01 19.8858 108.566 15.7483 109.647 11.1587C110.729 6.56901 108.817 1.9026 107.922 2.03224Z" fill="#C37ABA"/>
<path d="M108.192 5.00251C108.043 2.7948 106.997 1.70903 106.187 1.28082C105.842 1.09897 105.428 1.11689 105.104 1.33301C102.285 3.21468 97.2503 13.5206 96.6763 15.6444C96.2435 17.2457 96.8297 21.6802 97.2954 24.4106C97.3999 25.0232 97.8154 25.5339 98.3887 25.7739C98.9743 26.0191 99.6456 25.9491 100.152 25.5669C101.665 24.4264 103.933 22.5381 105.027 20.9899C106.677 18.6552 108.424 8.46148 108.192 5.00251Z" fill="#B165A6"/>
<path d="M140.208 12.1349C140.412 10.298 141.96 6.23582 143.106 3.47209C143.429 2.69379 144.357 2.55864 144.658 3.34562C146.372 7.82434 145.693 19.2464 145.014 21.2822C144.239 23.6078 140.208 27.6388 139.278 27.1737C138.348 26.7085 139.898 14.9256 140.208 12.1349Z" fill="#E5A7BB"/>
<path d="M138.965 1.59162C139.586 1.96371 139.637 3.29704 139.586 3.9172C139.379 11.7208 138.686 27.2971 137.57 27.1731C136.175 27.018 134.779 26.3979 133.384 22.2118C131.989 18.0258 133.074 13.9947 133.849 9.34355C134.624 4.69239 138.19 1.1265 138.965 1.59162Z" fill="#E0A3AF"/>
<path d="M137.573 4.22742C138.563 2.24833 139.947 1.65083 140.86 1.56885C141.248 1.53404 141.624 1.71078 141.839 2.03518C143.712 4.85949 144.376 16.3103 144.085 18.491C143.866 20.1351 141.613 23.9992 140.128 26.3379C139.796 26.8626 139.215 27.1731 138.594 27.1731C137.959 27.1731 137.366 26.8494 137.047 26.301C136.092 24.6648 134.729 22.0471 134.318 20.1964C133.697 17.4057 136.023 7.3282 137.573 4.22742Z" fill="#EE73A0"/>
<path d="M73.74 17.5945C73.6169 15.7504 74.4237 11.479 75.0648 8.55632C75.2454 7.73327 76.1346 7.43662 76.5698 8.15815C79.0466 12.2644 80.3927 23.6271 80.0839 25.7507C79.731 28.1766 76.4747 32.8553 75.477 32.5616C74.4793 32.2678 73.927 20.3962 73.74 17.5945Z" fill="#E5A7BB"/>
<path d="M70.6598 7.43696C71.3358 7.69383 71.6219 8.99714 71.6804 9.61669C72.8534 17.3344 74.9193 32.7886 73.7989 32.8634C72.3984 32.9568 70.9149 32.5926 68.8031 28.7183C66.6912 24.8441 67.0484 20.6848 66.9911 15.9698C66.9337 11.2548 69.8147 7.11588 70.6598 7.43696Z" fill="#E0A3AF"/>
<path d="M69.7493 10.2768C70.3743 8.15414 71.6315 7.32184 72.5156 7.08012C72.8911 6.97746 73.2921 7.08515 73.5612 7.36651C75.9033 9.81611 78.5765 20.9702 78.675 23.168C78.7492 24.8251 77.2127 29.0261 76.1644 31.5898C75.9292 32.1651 75.4125 32.5731 74.8008 32.6828C74.1759 32.7948 73.5359 32.5805 73.1242 32.0972C71.8959 30.655 70.0926 28.3188 69.3613 26.5696C68.2586 23.9321 68.7702 13.6024 69.7493 10.2768Z" fill="#EE73A0"/>
<path d="M34.308 20.485C34.7086 18.6807 34.557 14.3364 34.3652 11.3504C34.3112 10.5095 33.4771 10.0818 32.9378 10.7292C29.8684 14.4136 26.8194 25.4421 26.8036 27.588C26.7855 30.0393 29.2969 35.1567 30.3275 35.0173C31.3581 34.8778 33.6994 23.2262 34.308 20.485Z" fill="#E0A3AF"/>
<path d="M38.8922 10.9096C38.1851 11.0613 37.7052 12.3064 37.5537 12.91C35.227 20.3615 30.8478 35.3255 31.944 35.5689C33.3143 35.8731 34.8357 35.7374 37.5092 32.2271C40.1827 28.7167 40.4585 24.5512 41.2283 19.8992C41.9981 15.2471 39.7761 10.7201 38.8922 10.9096Z" fill="#E5A7BB"/>
<path d="M39.3575 13.8541C39.0608 11.6614 37.9439 10.6485 37.1064 10.2759C36.7508 10.1176 36.3381 10.1634 36.0296 10.4009C33.344 12.4681 29.0147 23.0897 28.585 25.2473C28.261 26.8741 29.1446 31.2591 29.7931 33.9519C29.9386 34.5561 30.3876 35.0376 30.9757 35.2385C31.5765 35.4437 32.2415 35.3287 32.7216 34.9132C34.1538 33.6734 36.2898 31.6367 37.2771 30.0183C38.766 27.5778 39.8225 17.2895 39.3575 13.8541Z" fill="#EE73A0"/>
<path d="M50.4396 12.2437C50.2083 10.41 48.6007 6.37121 47.4133 3.62476C47.0789 2.85133 46.1495 2.72994 45.86 3.52129C44.2128 8.0249 45.0612 19.4356 45.7698 21.4612C46.5794 23.775 50.6692 27.7459 51.5925 27.267C52.5157 26.7882 50.791 15.0295 50.4396 12.2437Z" fill="#C881B9"/>
<path d="M51.5241 1.68424C50.9095 2.06548 50.8776 3.39943 50.9385 4.01875C51.2607 11.8185 52.1838 27.3828 53.2979 27.2422C54.6904 27.0665 56.0771 26.4258 57.4103 22.2195C58.7435 18.0133 57.5986 13.9987 56.7546 9.35956C55.9106 4.72039 52.2923 1.2077 51.5241 1.68424Z" fill="#C37ABA"/>
<path d="M52.9548 4.29835C51.936 2.33413 50.543 1.7572 49.6289 1.68876C49.2408 1.65969 48.8677 1.84197 48.6574 2.16952C46.8261 5.02127 46.3319 16.4806 46.6549 18.6568C46.8984 20.2975 49.2089 24.1278 50.7274 26.4442C51.0682 26.964 51.6532 27.2659 52.2746 27.2567C52.9094 27.2473 53.4967 26.9148 53.8085 26.3617C54.7388 24.7116 56.0629 22.0739 56.4467 20.2174C57.0255 17.4178 54.5509 7.37583 52.9548 4.29835Z" fill="#B165A6"/>
<path d="M10.2987 12.2437C10.53 10.41 12.1376 6.37121 13.325 3.62476C13.6593 2.85133 14.5888 2.72994 14.8783 3.52129C16.5255 8.0249 15.6771 19.4356 14.9684 21.4612C14.1589 23.775 10.069 27.7459 9.1458 27.267C8.22256 26.7882 9.94729 15.0295 10.2987 12.2437Z" fill="#D34990"/>
<path d="M9.21418 1.68424C9.82876 2.06548 9.86068 3.39943 9.79983 4.01875C9.47756 11.8185 8.5545 27.3828 7.44043 27.2422C6.04784 27.0665 4.66121 26.4258 3.32801 22.2195C1.99481 18.0133 3.13966 13.9987 3.98366 9.35956C4.82765 4.72039 8.44596 1.2077 9.21418 1.68424Z" fill="#CD4C9B"/>
<path d="M7.78352 4.29835C8.80227 2.33413 10.1953 1.7572 11.1093 1.68876C11.4975 1.65969 11.8706 1.84197 12.0809 2.16952C13.9122 5.02127 14.4064 16.4806 14.0834 18.6568C13.8398 20.2975 11.5294 24.1278 10.0109 26.4442C9.67013 26.964 9.0851 27.2659 8.46367 27.2567C7.82885 27.2473 7.24159 26.9148 6.92978 26.3617C5.99943 24.7116 4.67537 22.0739 4.29156 20.2174C3.71281 17.4178 6.18738 7.37583 7.78352 4.29835Z" fill="#B34191"/>
<path d="M149.779 24.8066C149.608 25.2171 149.374 25.6327 149.163 26.0418C147.195 29.732 145.513 33.48 144.241 37.3833C142.963 41.2831 142.071 45.3035 141.561 49.4675C141.506 49.9235 141.449 50.4016 141.407 50.8532C141.645 50.4674 141.888 50.0514 142.119 49.6543C144.218 46.0201 145.907 42.2564 147.188 38.3483C148.462 34.4385 149.355 30.4096 149.729 26.2053C149.762 25.7419 149.81 25.2594 149.779 24.8066Z" fill="#ACC670"/>
<path d="M132.414 22.6367C132.266 23.0542 132.167 23.5189 132.065 23.9785C131.195 28.0305 130.992 32.1266 131.418 36.1642C131.881 40.1803 132.841 44.2829 135.113 47.8956C135.376 48.2906 135.666 48.6761 135.98 48.9933C135.885 48.5583 135.823 48.1035 135.777 47.6534C135.493 43.6439 135.574 39.7068 135.117 35.7681C134.703 31.8329 133.909 27.9013 132.772 23.9588C132.65 23.5091 132.514 23.061 132.414 22.6367Z" fill="#8FA46D"/>
<path d="M84.1953 30.2324C84.0873 30.4624 83.9658 30.7041 83.8513 30.9346C82.7988 33.0253 82.0061 35.1556 81.5387 37.3588C81.0674 39.561 80.9088 41.8274 81.0403 44.1765C81.0557 44.4337 81.072 44.7033 81.0945 44.9611C81.2327 44.7422 81.3692 44.509 81.4988 44.2855C82.6724 42.2379 83.4904 40.0928 83.9646 37.8772C84.4347 35.6611 84.577 33.3685 84.3158 31.0143C84.2841 30.7561 84.2515 30.482 84.1953 30.2324Z" fill="#ACC670"/>
<path d="M69.0035 31.1621C68.9028 31.3775 68.8514 31.6379 68.801 31.8683C68.4125 34.0392 68.5379 36.135 68.9239 38.1464C69.3188 40.162 70.0373 42.0874 71.0027 44.0088C71.1091 44.2194 71.2198 44.4403 71.3312 44.6505C71.3837 44.4185 71.4285 44.1741 71.469 43.9398C71.8248 41.7947 71.7532 39.6856 71.3576 37.6674C70.9688 35.6431 70.1964 33.7202 69.2694 31.8162C69.1731 31.6099 69.0685 31.3855 69.0035 31.1621Z" fill="#C1CD79"/>
<path d="M127.145 33.7988C127.037 34.0288 126.915 34.2705 126.801 34.501C125.748 36.5917 124.955 38.722 124.488 40.9252C124.017 43.1274 123.858 45.3938 123.99 47.7429C124.005 48.0001 124.021 48.2697 124.044 48.5275C124.182 48.3086 124.318 48.0754 124.448 47.8519C125.622 45.8043 126.44 43.6592 126.914 41.4436C127.384 39.2275 127.526 36.9349 127.265 34.5807C127.233 34.3225 127.201 34.0484 127.145 33.7988Z" fill="#668736"/>
<path d="M118.459 34.418C118.357 34.6277 118.29 34.8763 118.226 35.0978C117.691 37.1875 117.638 39.251 117.891 41.2542C118.151 43.2595 118.757 45.2115 119.689 47.1187C119.792 47.3273 119.901 47.5452 120.011 47.7513C120.065 47.5233 120.112 47.2846 120.156 47.0561C120.551 44.9682 120.609 42.9273 120.351 40.9353C120.099 38.9405 119.493 37.0067 118.696 35.0742C118.612 34.8661 118.523 34.6385 118.459 34.418Z" fill="#ACC670"/>
<path d="M109.623 33.9531C109.523 34.1464 109.468 34.3755 109.418 34.5863C109.039 36.5541 109.2 38.4217 109.589 40.1901C109.991 41.963 110.695 43.6339 111.63 45.3246C111.733 45.5105 111.84 45.7037 111.949 45.8911C112.004 45.6818 112.052 45.4648 112.096 45.2543C112.482 43.3324 112.414 41.4291 112.008 39.6408C111.611 37.8429 110.812 36.1755 109.886 34.5282C109.79 34.3462 109.689 34.1564 109.623 33.9531Z" fill="#C1CD79"/>
<path d="M174.43 34.2637C174.322 34.4936 174.2 34.7353 174.086 34.9659C173.033 37.0565 172.24 39.1868 171.773 41.39C171.302 43.5923 171.143 45.8587 171.275 48.2078C171.29 48.465 171.306 48.7345 171.329 48.9924C171.467 48.7735 171.604 48.5402 171.733 48.3168C172.907 46.2691 173.725 44.124 174.199 41.9084C174.669 39.6923 174.811 37.3997 174.55 35.0455C174.518 34.7873 174.486 34.5133 174.43 34.2637Z" fill="#ACC670"/>
<path d="M164.817 37.0547C164.695 37.2631 164.607 37.5141 164.525 37.7372C163.823 39.8467 163.688 41.9266 163.941 43.9309C164.201 45.9378 164.89 47.8787 165.988 49.7633C166.11 49.9694 166.238 50.1846 166.369 50.388C166.443 50.1573 166.51 49.9159 166.572 49.6849C167.133 47.5744 167.274 45.5224 167.016 43.5321C166.765 41.5383 166.076 39.6207 165.113 37.7078C165.01 37.5015 164.901 37.2766 164.817 37.0547Z" fill="#92BA37"/>
<path d="M157.221 37.0547C157.121 37.248 157.065 37.4771 157.016 37.6879C156.637 39.6556 156.797 41.5233 157.187 43.2917C157.588 45.0646 158.293 46.7355 159.228 48.4261C159.331 48.612 159.438 48.8052 159.546 48.9927C159.602 48.7834 159.65 48.5664 159.694 48.3559C160.079 46.4339 160.011 44.5307 159.606 42.7424C159.209 40.9445 158.41 39.277 157.484 37.6297C157.387 37.4478 157.286 37.2579 157.221 37.0547Z" fill="#668736"/>
<path d="M40.168 34.8848C40.0599 35.1147 39.9385 35.3564 39.824 35.587C38.7715 37.6776 37.9787 39.8079 37.5114 42.0111C37.0401 44.2134 36.8814 46.4798 37.013 48.8289C37.0284 49.0861 37.0446 49.3556 37.0672 49.6134C37.2053 49.3946 37.3419 49.1613 37.4714 48.9379C38.6451 46.8902 39.463 44.7451 39.9372 42.5295C40.4073 40.3134 40.5497 38.0208 40.2885 35.6666C40.2567 35.4084 40.2242 35.1344 40.168 34.8848Z" fill="#ACC670"/>
<path d="M23.2675 33.6445C23.1674 33.8378 23.1124 34.0669 23.0628 34.2777C22.6838 36.2455 22.8441 38.1131 23.2339 39.8815C23.6352 41.6544 24.3398 43.3253 25.2745 45.016C25.3778 45.2019 25.4847 45.3951 25.5931 45.5825C25.6486 45.3732 25.697 45.1562 25.7405 44.9457C26.1261 43.0238 26.0581 41.1205 25.6527 39.3322C25.2557 37.5343 24.4569 35.8669 23.5306 34.2196C23.4343 34.0376 23.3331 33.8478 23.2675 33.6445Z" fill="#668736"/>
<path d="M46.3693 24.6523C46.5409 25.0628 46.7748 25.4784 46.9858 25.8875C48.9539 29.5777 50.6356 33.3257 51.9074 37.229C53.1854 41.1288 54.0779 45.1492 54.5879 49.3132C54.6423 49.7692 54.6989 50.2473 54.7414 50.6989C54.503 50.3131 54.2601 49.8971 54.0292 49.5C51.9309 45.8658 50.2414 42.1021 48.9607 38.194C47.6869 34.2842 46.7939 30.2553 46.4199 26.051C46.3867 25.5876 46.3383 25.1051 46.3693 24.6523Z" fill="#8FA46D"/>
<path d="M62.6483 22.6367C62.5004 23.0542 62.401 23.5189 62.2998 23.9785C61.4296 28.0305 61.2267 32.1266 61.6521 36.1642C62.1152 40.1803 63.0754 44.2829 65.3473 47.8956C65.6103 48.2906 65.9007 48.6761 66.2148 48.9933C66.1193 48.5583 66.0571 48.1035 66.0114 47.6534C65.7272 43.6439 65.8088 39.7068 65.3518 35.7681C64.9375 31.8329 64.143 27.9013 63.0063 23.9588C62.8845 23.5091 62.7485 23.061 62.6483 22.6367Z" fill="#668736"/>
<path d="M57.5763 27.1776C57.2712 30.5416 56.9455 33.7057 56.7212 36.8887C56.4842 40.0709 56.3809 43.2604 56.2003 46.6252C56.1797 46.9945 56.1521 47.3795 56.124 47.7523C56.3459 47.4513 56.5614 47.1248 56.7615 46.8051C58.5676 43.8665 59.5658 40.506 59.8141 37.11C60.0584 33.7132 59.5194 30.2349 58.1577 27.0831C58.0064 26.7319 57.846 26.3888 57.6747 26.0469C57.643 26.428 57.6096 26.8021 57.5763 27.1776Z" fill="#92BA37"/>
<path d="M90.5996 18.2949C90.3473 18.7123 90.1464 19.181 89.9625 19.6346C88.373 23.8298 87.817 28.3114 88.0082 32.7465C88.2237 37.1709 89.2747 41.6609 91.4796 45.5609C91.7235 45.9881 91.9852 46.4157 92.2578 46.8221C92.1773 46.3394 92.1023 45.8494 92.0374 45.3707C91.4609 41.0339 91.3196 36.8339 91.1053 32.5991C90.9257 28.3661 90.6242 24.1097 90.5409 19.7466C90.5401 19.2692 90.5441 18.7766 90.5996 18.2949Z" fill="#8FA46D"/>
<path d="M95.5312 25.1172C95.2843 25.5057 95.0358 25.8886 94.7945 26.2809C92.6079 29.808 91.0509 33.7708 90.5261 37.9621C89.9976 42.1221 90.5495 46.606 92.6237 50.2907C92.8527 50.6988 93.0976 51.091 93.3607 51.4738C93.2897 51.0148 93.2325 50.5631 93.1845 50.1102C92.7703 46.0454 93.1316 42.2177 93.603 38.3461C94.0885 34.476 94.7399 30.5725 95.348 26.4826C95.4137 26.0289 95.4789 25.5755 95.5312 25.1172Z" fill="#ACC670"/>
<path d="M106.678 22.1719C106.458 22.5856 106.144 22.9876 105.858 23.4113C103.257 27.0412 101.007 30.878 99.3568 34.9829C97.75 39.0852 96.4396 43.4579 96.6131 48.1169C96.6574 48.6037 96.7261 49.1662 96.9101 49.6137C96.9743 49.1393 97.1413 48.6448 97.3132 48.2157C99.0609 44.2166 101.219 40.4323 102.807 36.3749C104.43 32.3381 105.747 28.1259 106.513 23.6777C106.594 23.1672 106.696 22.657 106.678 22.1719Z" fill="#668736"/>
<path d="M19.0817 25.8926C19.094 26.3546 18.9873 26.837 18.9085 27.3C18.0831 31.4952 16.7446 35.4365 15.1094 39.2444C13.4703 43.0545 11.4705 46.668 9.26974 50.2718C9.02861 50.6672 8.77902 51.0835 8.53906 51.474C8.58303 51.0177 8.64806 50.5342 8.7153 50.0726C9.35685 45.8559 10.6175 41.8389 12.263 38.0147C13.9083 34.1839 16.0091 30.5874 18.3613 27.0814C18.6113 26.6907 18.8943 26.2997 19.0817 25.8926Z" fill="#ACC670"/>
<path d="M3.254 21.8613C3.40192 22.2788 3.50136 22.7435 3.60253 23.2031C4.47272 27.2551 4.67562 31.3512 4.25024 35.3888C3.78718 39.4049 2.82696 43.5075 0.555051 47.1202C0.292051 47.5152 0.00165606 47.9007 -0.3125 48.2179C-0.216978 47.7829 -0.1548 47.3281 -0.109012 46.878C0.175134 42.8685 0.0935816 38.9315 0.550509 34.9927C0.964887 31.0576 1.75937 27.1259 2.89608 23.1834C3.01789 22.7337 3.15387 22.2856 3.254 21.8613Z" fill="#ACC670"/>
<path d="M13.4979 24.6523C13.54 25.1313 13.5015 25.6455 13.4722 26.1588C13.1827 30.6482 12.2629 34.9922 10.8344 39.1503C9.38358 43.2956 7.46772 47.3291 4.72035 50.9632C4.42315 51.3315 4.07503 51.7684 3.73047 52.0942C3.86203 51.6408 3.99021 51.1154 4.08112 50.6616C4.94664 46.3125 5.87763 42.0482 7.31725 37.9357C8.73182 33.8179 10.5907 29.8358 12.7936 25.9614C13.0363 25.5136 13.2976 25.078 13.4979 24.6523Z" fill="#8FA46D"/>
</g>
<defs>
<clipPath id="clip0_10059_165289">
<rect width="174.884" height="40" fill="white"/>
</clipPath>
</defs>
</svg>
