<svg width="80" height="80" viewBox="0 0 80 80" fill="none" xmlns="http://www.w3.org/2000/svg">
<path fill-rule="evenodd" clip-rule="evenodd" d="M13.8224 11.4435C12 13.266 12 16.1992 12 22.0655V40.7322C12 46.5986 12 49.5318 13.8224 51.3542C15.6449 53.1767 18.5781 53.1767 24.4444 53.1767H55.5556C61.4219 53.1767 64.3551 53.1767 66.1776 51.3542C68 49.5318 68 46.5986 68 40.7322V22.0655C68 16.1992 68 13.266 66.1776 11.4435C64.3551 9.62109 61.4219 9.62109 55.5556 9.62109H24.4444C18.5781 9.62109 15.6449 9.62109 13.8224 11.4435ZM17.6403 42.8699C17.7928 43.0006 17.9561 43.0659 18.1303 43.0659H20.9723C21.2772 43.0659 21.495 43.0006 21.6257 42.8699C21.7781 42.7174 21.8761 42.5759 21.9197 42.4452L23.359 38.709C23.4055 38.5884 23.4287 38.5281 23.4784 38.494C23.5282 38.4599 23.5927 38.4599 23.7219 38.4599H23.7219H32.8901H32.8901C33.0193 38.4599 33.0839 38.4599 33.1336 38.494C33.1833 38.5281 33.2065 38.5884 33.253 38.709L34.6923 42.4452C34.7359 42.5759 34.823 42.7174 34.9537 42.8699C35.1061 43.0006 35.3348 43.0659 35.6397 43.0659H38.4817C38.6559 43.0659 38.8083 43.0006 38.939 42.8699C39.0697 42.7392 39.135 42.5759 39.135 42.3799C39.135 42.2928 39.1241 42.1948 39.1023 42.0859L31.2297 21.0159C31.1426 20.7981 31.0119 20.613 30.8377 20.4606C30.6634 20.2863 30.413 20.1992 30.0863 20.1992H26.5257C26.199 20.1992 25.9377 20.2863 25.7417 20.4606C25.5674 20.613 25.4477 20.7981 25.3823 21.0159L17.5097 42.0859C17.4661 42.1948 17.4443 42.2928 17.4443 42.3799C17.4443 42.5759 17.5097 42.7392 17.6403 42.8699ZM24.7171 34.6202C24.6591 34.5371 24.7025 34.4184 24.7894 34.1808L27.5624 26.5979C27.867 25.765 28.0193 25.3486 28.2907 25.3482C28.5622 25.3478 28.7156 25.7638 29.0226 26.5958L31.8205 34.1797C31.9083 34.4177 31.9522 34.5367 31.8942 34.62C31.8362 34.7032 31.7093 34.7032 31.4557 34.7032H25.1546C24.9017 34.7032 24.7752 34.7032 24.7171 34.6202ZM40.8579 42.8372C41.0103 42.9897 41.1954 43.0659 41.4132 43.0659H44.1572C44.4185 43.0659 44.6254 43.0006 44.7779 42.8699C44.9303 42.7392 45.0392 42.6303 45.1045 42.5432L55.1141 28.5664C55.4042 28.1614 55.5492 27.9589 55.6842 28.0022C55.8192 28.0456 55.8192 28.2947 55.8192 28.7928V42.2819C55.8192 42.4997 55.8954 42.6848 56.0479 42.8372C56.2003 42.9897 56.3963 43.0659 56.6358 43.0659H59.5759C59.7936 43.0659 59.9787 42.9897 60.1312 42.8372C60.2836 42.6848 60.3599 42.4997 60.3599 42.2819V21.0159C60.3599 20.7763 60.2836 20.5803 60.1312 20.4279C59.9787 20.2754 59.7936 20.1992 59.5759 20.1992H56.8645C56.625 20.1992 56.429 20.2646 56.2765 20.3952C56.1241 20.5041 56.0043 20.613 55.9172 20.7219L45.8769 35.0041C45.5866 35.4171 45.4415 35.6235 45.3056 35.5806C45.1699 35.5376 45.1698 35.2852 45.1698 34.7805V21.0159C45.1698 20.7763 45.0936 20.5803 44.9412 20.4279C44.8105 20.2754 44.6254 20.1992 44.3858 20.1992H41.4459C41.2063 20.1992 41.0103 20.2754 40.8579 20.4279C40.7054 20.5803 40.6292 20.7763 40.6292 21.0159V42.2492C40.6292 42.4888 40.7054 42.6848 40.8579 42.8372Z" fill="#3F76FF"/>
<path d="M15.5805 71.9708C15.4501 71.9708 15.3394 71.9317 15.2482 71.8535C15.1569 71.7623 15.1113 71.645 15.1113 71.5017V58.7768C15.1113 58.6334 15.1569 58.5161 15.2482 58.4249C15.3394 58.3337 15.4501 58.2881 15.5805 58.2881H25.8229C25.9663 58.2881 26.0836 58.3337 26.1748 58.4249C26.266 58.5161 26.3116 58.6334 26.3116 58.7768V71.5017C26.3116 71.632 26.266 71.7428 26.1748 71.834C26.0836 71.9252 25.9663 71.9708 25.8229 71.9708H24.0637C23.9334 71.9708 23.8227 71.9252 23.7314 71.834C23.6402 71.7428 23.5946 71.632 23.5946 71.5017V60.9641C23.5946 60.8544 23.5946 60.7996 23.5605 60.7655C23.5265 60.7314 23.4716 60.7314 23.3619 60.7314H18.061C17.9513 60.7314 17.8965 60.7314 17.8624 60.7655C17.8283 60.7996 17.8283 60.8544 17.8283 60.9641V71.5017C17.8283 71.632 17.7827 71.7428 17.6915 71.834C17.6133 71.9252 17.5025 71.9708 17.3592 71.9708H15.5805Z" fill="#3F76FF"/>
<path d="M37.4708 71.9708C37.3405 71.9708 37.2297 71.9252 37.1385 71.834C37.0473 71.7428 37.0017 71.632 37.0017 71.5017V60.9641C37.0017 60.8544 37.0017 60.7996 36.9676 60.7655C36.9335 60.7314 36.8787 60.7314 36.769 60.7314H32.9927C32.883 60.7314 32.8282 60.7314 32.7941 60.7655C32.76 60.7996 32.76 60.8544 32.76 60.9641V63.1943C32.76 64.7581 32.6753 66.0938 32.5059 67.2014C32.3495 68.309 32.0889 69.2082 31.724 69.8989C31.3592 70.5765 30.864 71.0847 30.2385 71.4235C29.613 71.7493 28.8311 71.9252 27.8929 71.9513C27.7626 71.9643 27.6453 71.9252 27.541 71.834C27.4498 71.7297 27.4042 71.6124 27.4042 71.4821V70.0161C27.4042 69.7425 27.5541 69.5861 27.8538 69.547C28.2447 69.4819 28.577 69.2994 28.8507 68.9997C29.1374 68.7 29.3719 68.2765 29.5543 67.7292C29.7498 67.1819 29.8932 66.5042 29.9844 65.6963C30.0756 64.8753 30.1212 63.9241 30.1212 62.8425V58.7572C30.1212 58.6269 30.1668 58.5161 30.258 58.4249C30.3492 58.3337 30.46 58.2881 30.5903 58.2881H39.23C39.3733 58.2881 39.4906 58.3337 39.5818 58.4249C39.673 58.5161 39.7187 58.6334 39.7187 58.7768V71.5017C39.7187 71.632 39.673 71.7428 39.5818 71.834C39.4906 71.9252 39.3733 71.9708 39.23 71.9708H37.4708Z" fill="#3F76FF"/>
<path d="M41.004 71.9708C40.8997 71.9708 40.802 71.9317 40.7108 71.8535C40.6326 71.7753 40.5935 71.6776 40.5935 71.5603C40.5935 71.5082 40.6065 71.4496 40.6326 71.3844L45.3433 58.7768C45.3824 58.6464 45.4541 58.5357 45.5584 58.4445C45.6756 58.3402 45.832 58.2881 46.0275 58.2881H48.1581C48.3535 58.2881 48.5034 58.3402 48.6077 58.4445C48.7119 58.5357 48.7901 58.6464 48.8422 58.7768L53.553 71.3844C53.566 71.4496 53.5725 71.5082 53.5725 71.5603C53.5725 71.6776 53.5334 71.7753 53.4552 71.8535C53.3771 71.9317 53.2858 71.9708 53.1816 71.9708H51.481C51.2986 71.9708 51.1618 71.9317 51.0705 71.8535C50.9924 71.7623 50.9402 71.6776 50.9142 71.5994L50.0529 69.3638C50.0251 69.2916 50.0112 69.2556 49.9815 69.2351C49.9517 69.2147 49.913 69.2147 49.8357 69.2147H44.3498C44.2725 69.2147 44.2339 69.2147 44.2041 69.2351C44.1744 69.2556 44.1605 69.2916 44.1327 69.3638L43.2714 71.5994C43.2453 71.6776 43.1867 71.7623 43.0955 71.8535C43.0173 71.9317 42.887 71.9708 42.7045 71.9708H41.004ZM44.9885 66.6542C44.9366 66.7964 44.9106 66.8675 44.9453 66.9172C44.98 66.9668 45.0557 66.9668 45.2071 66.9668H48.9775C49.1292 66.9668 49.2051 66.9668 49.2398 66.917C49.2746 66.8672 49.2483 66.796 49.1958 66.6536L47.5216 62.1156C47.3379 61.6178 47.2461 61.3689 47.0836 61.3691C46.9212 61.3693 46.8301 61.6185 46.6478 62.1169L44.9885 66.6542Z" fill="#3F76FF"/>
<path d="M54.9357 71.9708C54.8054 71.9708 54.6946 71.9317 54.6034 71.8535C54.5122 71.7623 54.4666 71.645 54.4666 71.5017V58.7768C54.4666 58.6334 54.5122 58.5161 54.6034 58.4249C54.6946 58.3337 54.8054 58.2881 54.9357 58.2881H56.7145C56.8578 58.2881 56.9686 58.3337 57.0468 58.4249C57.138 58.5161 57.1836 58.6334 57.1836 58.7768V63.5871C57.1836 63.6968 57.1836 63.7517 57.2177 63.7857C57.2518 63.8198 57.3066 63.8198 57.4163 63.8198H62.7172C62.8269 63.8198 62.8817 63.8198 62.9158 63.7857C62.9499 63.7517 62.9499 63.6968 62.9499 63.5871V58.7768C62.9499 58.6334 62.9955 58.5161 63.0867 58.4249C63.1779 58.3337 63.2887 58.2881 63.419 58.2881H65.1782C65.3216 58.2881 65.4388 58.3337 65.5301 58.4249C65.6213 58.5161 65.6669 58.6334 65.6669 58.7768V71.5017C65.6669 71.632 65.6213 71.7428 65.5301 71.834C65.4388 71.9252 65.3216 71.9708 65.1782 71.9708H63.419C63.2887 71.9708 63.1779 71.9252 63.0867 71.834C62.9955 71.7428 62.9499 71.632 62.9499 71.5017V66.4959C62.9499 66.3862 62.9499 66.3313 62.9158 66.2972C62.8817 66.2632 62.8269 66.2632 62.7172 66.2632H57.4163C57.3066 66.2632 57.2518 66.2632 57.2177 66.2972C57.1836 66.3313 57.1836 66.3862 57.1836 66.4959V71.5017C57.1836 71.632 57.138 71.7428 57.0468 71.834C56.9686 71.9252 56.8578 71.9708 56.7145 71.9708H54.9357Z" fill="#3F76FF"/>
</svg>
