<svg width="192" height="58" viewBox="0 0 192 58" fill="none" xmlns="http://www.w3.org/2000/svg">
<path d="M3 25C3 13.6863 3 8.02944 6.51472 4.51472C10.0294 1 15.6863 1 27 1H51C62.3137 1 67.9706 1 71.4853 4.51472C75 8.02944 75 13.6863 75 25V33C75 44.3137 75 49.9706 71.4853 53.4853C67.9706 57 62.3137 57 51 57H27C15.6863 57 10.0294 57 6.51472 53.4853C3 49.9706 3 44.3137 3 33V25Z" fill="#5685FB"/>
<path d="M10.882 43.9996C10.658 43.9996 10.448 43.9156 10.252 43.7476C10.084 43.5796 10 43.3696 10 43.1176C10 43.0056 10.028 42.8796 10.084 42.7396L20.206 15.6496C20.29 15.3696 20.444 15.1316 20.668 14.9356C20.92 14.7116 21.256 14.5996 21.676 14.5996H26.254C26.674 14.5996 26.996 14.7116 27.22 14.9356C27.444 15.1316 27.612 15.3696 27.724 15.6496L37.846 42.7396C37.874 42.8796 37.888 43.0056 37.888 43.1176C37.888 43.3696 37.804 43.5796 37.636 43.7476C37.468 43.9156 37.272 43.9996 37.048 43.9996H33.394C33.002 43.9996 32.708 43.9156 32.512 43.7476C32.344 43.5516 32.232 43.3696 32.176 43.2016L30.3254 38.3979C30.2657 38.2429 30.2358 38.1654 30.1719 38.1215C30.1079 38.0776 30.0249 38.0776 29.8588 38.0776H18.0712C17.9051 38.0776 17.8221 38.0776 17.7581 38.1215C17.6942 38.1654 17.6643 38.2429 17.6046 38.3979L15.754 43.2016C15.698 43.3696 15.572 43.5516 15.376 43.7476C15.208 43.9156 14.928 43.9996 14.536 43.9996H10.882ZM19.4436 32.5759C19.3319 32.8814 19.2761 33.0341 19.3507 33.1408C19.4254 33.2476 19.588 33.2476 19.9132 33.2476H28.0146C28.3407 33.2476 28.5038 33.2476 28.5784 33.1406C28.653 33.0335 28.5966 32.8805 28.4837 32.5745L24.8863 22.8238C24.4917 21.7541 24.2944 21.2193 23.9454 21.2198C23.5963 21.2203 23.4006 21.7557 23.009 22.8265L19.4436 32.5759Z" fill="white"/>
<path d="M40.8171 43.9996C40.5371 43.9996 40.2991 43.9016 40.1031 43.7056C39.9071 43.5096 39.8091 43.2576 39.8091 42.9496V15.6496C39.8091 15.3416 39.9071 15.0896 40.1031 14.8936C40.2991 14.6976 40.5511 14.5996 40.8591 14.5996H44.6391C44.9471 14.5996 45.1851 14.6976 45.3531 14.8936C45.5491 15.0896 45.6471 15.3416 45.6471 15.6496V33.347C45.6471 33.9959 45.6471 34.3204 45.8217 34.3756C45.9963 34.4309 46.1829 34.1654 46.5561 33.6345L59.4651 15.2716C59.5771 15.1316 59.7311 14.9916 59.9271 14.8516C60.1231 14.6836 60.3751 14.5996 60.6831 14.5996H64.1691C64.4491 14.5996 64.6871 14.6976 64.8831 14.8936C65.0791 15.0896 65.1771 15.3416 65.1771 15.6496V42.9916C65.1771 43.2716 65.0791 43.5096 64.8831 43.7056C64.6871 43.9016 64.4491 43.9996 64.1691 43.9996H60.3891C60.0811 43.9996 59.8291 43.9016 59.6331 43.7056C59.4371 43.5096 59.3391 43.2716 59.3391 42.9916V25.6485C59.3391 25.008 59.3391 24.6878 59.1655 24.632C58.992 24.5763 58.8055 24.8367 58.4326 25.3574L45.5631 43.3276C45.4791 43.4396 45.3391 43.5796 45.1431 43.7476C44.9471 43.9156 44.6811 43.9996 44.3451 43.9996H40.8171Z" fill="white"/>
<path d="M81.008 43.4C80.728 43.4 80.49 43.316 80.294 43.148C80.098 42.952 80 42.7 80 42.392V15.05C80 14.742 80.098 14.49 80.294 14.294C80.49 14.098 80.728 14 81.008 14H103.016C103.324 14 103.576 14.098 103.772 14.294C103.968 14.49 104.066 14.742 104.066 15.05V42.392C104.066 42.672 103.968 42.91 103.772 43.106C103.576 43.302 103.324 43.4 103.016 43.4H99.236C98.956 43.4 98.718 43.302 98.522 43.106C98.326 42.91 98.228 42.672 98.228 42.392V19.75C98.228 19.5143 98.228 19.3964 98.1548 19.3232C98.0816 19.25 97.9637 19.25 97.728 19.25H86.338C86.1023 19.25 85.9844 19.25 85.9112 19.3232C85.838 19.3964 85.838 19.5143 85.838 19.75V42.392C85.838 42.672 85.74 42.91 85.544 43.106C85.376 43.302 85.138 43.4 84.83 43.4H81.008Z" fill="#5685FB"/>
<path d="M128.044 43.4C127.764 43.4 127.526 43.302 127.33 43.106C127.134 42.91 127.036 42.672 127.036 42.392V19.75C127.036 19.5143 127.036 19.3964 126.962 19.3232C126.889 19.25 126.771 19.25 126.536 19.25H118.422C118.186 19.25 118.068 19.25 117.995 19.3232C117.922 19.3964 117.922 19.5143 117.922 19.75V24.542C117.922 27.902 117.74 30.772 117.376 33.152C117.04 35.532 116.48 37.464 115.696 38.948C114.912 40.404 113.848 41.496 112.504 42.224C111.16 42.924 109.48 43.302 107.464 43.358C107.184 43.386 106.932 43.302 106.708 43.106C106.512 42.882 106.414 42.63 106.414 42.35V39.2C106.414 38.612 106.736 38.276 107.38 38.192C108.22 38.052 108.934 37.66 109.522 37.016C110.138 36.372 110.642 35.462 111.034 34.286C111.454 33.11 111.762 31.654 111.958 29.918C112.154 28.154 112.252 26.11 112.252 23.786V15.008C112.252 14.728 112.35 14.49 112.546 14.294C112.742 14.098 112.98 14 113.26 14H131.824C132.132 14 132.384 14.098 132.58 14.294C132.776 14.49 132.874 14.742 132.874 15.05V42.392C132.874 42.672 132.776 42.91 132.58 43.106C132.384 43.302 132.132 43.4 131.824 43.4H128.044Z" fill="#5685FB"/>
<path d="M135.635 43.4C135.411 43.4 135.201 43.316 135.005 43.148C134.837 42.98 134.753 42.77 134.753 42.518C134.753 42.406 134.781 42.28 134.837 42.14L144.959 15.05C145.043 14.77 145.197 14.532 145.421 14.336C145.673 14.112 146.009 14 146.429 14H151.007C151.427 14 151.749 14.112 151.973 14.336C152.197 14.532 152.365 14.77 152.477 15.05L162.599 42.14C162.627 42.28 162.641 42.406 162.641 42.518C162.641 42.77 162.557 42.98 162.389 43.148C162.221 43.316 162.025 43.4 161.801 43.4H158.147C157.755 43.4 157.461 43.316 157.265 43.148C157.097 42.952 156.985 42.77 156.929 42.602L155.079 37.7983C155.019 37.6433 154.989 37.5658 154.925 37.5219C154.861 37.478 154.778 37.478 154.612 37.478H142.825C142.659 37.478 142.575 37.478 142.512 37.5219C142.448 37.5658 142.418 37.6433 142.358 37.7983L140.507 42.602C140.451 42.77 140.325 42.952 140.129 43.148C139.961 43.316 139.681 43.4 139.289 43.4H135.635ZM144.197 31.9763C144.085 32.2817 144.029 32.4345 144.104 32.5412C144.179 32.648 144.341 32.648 144.667 32.648H152.768C153.094 32.648 153.257 32.648 153.332 32.5409C153.406 32.4339 153.35 32.2809 153.237 31.9749L149.64 22.2242C149.245 21.1545 149.048 20.6197 148.699 20.6202C148.35 20.6207 148.154 21.1561 147.762 22.2269L144.197 31.9763Z" fill="#5685FB"/>
<path d="M165.57 43.4C165.29 43.4 165.052 43.316 164.856 43.148C164.66 42.952 164.562 42.7 164.562 42.392V15.05C164.562 14.742 164.66 14.49 164.856 14.294C165.052 14.098 165.29 14 165.57 14H169.393C169.701 14 169.938 14.098 170.106 14.294C170.302 14.49 170.4 14.742 170.4 15.05V25.386C170.4 25.6217 170.401 25.7396 170.474 25.8128C170.547 25.886 170.665 25.886 170.9 25.886H182.29C182.526 25.886 182.644 25.886 182.717 25.8128C182.79 25.7396 182.79 25.6217 182.79 25.386V15.05C182.79 14.742 182.889 14.49 183.085 14.294C183.281 14.098 183.519 14 183.799 14H187.578C187.886 14 188.139 14.098 188.335 14.294C188.531 14.49 188.629 14.742 188.629 15.05V42.392C188.629 42.672 188.531 42.91 188.335 43.106C188.139 43.302 187.886 43.4 187.578 43.4H183.799C183.519 43.4 183.281 43.302 183.085 43.106C182.889 42.91 182.79 42.672 182.79 42.392V31.636C182.79 31.4003 182.79 31.2824 182.717 31.2092C182.644 31.136 182.526 31.136 182.29 31.136H170.9C170.665 31.136 170.547 31.136 170.474 31.2092C170.401 31.2824 170.4 31.4003 170.4 31.636V42.392C170.4 42.672 170.302 42.91 170.106 43.106C169.938 43.302 169.701 43.4 169.393 43.4H165.57Z" fill="#5685FB"/>
</svg>
